<!DOCTYPE svg PUBLIC "-//W3C//DTD SVG 1.1//EN" "http://www.w3.org/Graphics/SVG/1.1/DTD/svg11.dtd">
<!-- Uploaded to: SVG Repo, www.svgrepo.com, Transformed by: SVG Repo Mixer Tools -->
<svg width="800px" height="800px" viewBox="0 0 16 16" xmlns="http://www.w3.org/2000/svg" fill="#46adaf" class="bi bi-bar-chart-line-fill" stroke="#46adaf" stroke-width="0.00016" transform="matrix(1, 0, 0, 1, 0, 0)">
<g id="SVGRepo_bgCarrier" stroke-width="0"/>
<g id="SVGRepo_tracerCarrier" stroke-linecap="round" stroke-linejoin="round" stroke="#CCCCCC" stroke-width="0.032"/>
<g id="SVGRepo_iconCarrier"> <path d="M11 2a1 1 0 0 1 1-1h2a1 1 0 0 1 1 1v12h.5a.5.5 0 0 1 0 1H.5a.5.5 0 0 1 0-1H1v-3a1 1 0 0 1 1-1h2a1 1 0 0 1 1 1v3h1V7a1 1 0 0 1 1-1h2a1 1 0 0 1 1 1v7h1V2z"/> </g>
</svg>